# xmcd
#
# Track frame offsets: 
#        150
#        19415
#        35367
#        64570
#        81725
#        107082
#        130841
#        152878
#        180744
#        203655
#
# Disc length: 3023 seconds
#
# Revision: 0
# Processed by: cddbd v1.5.2PL0 Copyright (c) Steve Scherf et al.
# Submitted via: ExactAudioCopy v0.99pb4
#
DISCID=860bcd0a
DTITLE=Corrina Steel - A Fling Wit A King
DYEAR=2009
DGENRE=Blues
TTITLE0=No Praises
TTITLE1=Save A Dream For Me
TTITLE2=Alibi
TTITLE3=Capitalist System
TTITLE4=Woman
TTITLE5=Fling With The King
TTITLE6=See Me Now
TTITLE7=Wildside
TTITLE8=Scorpio Moon
TTITLE9=Cowboy
EXTD=
EXTT0=
EXTT1=
EXTT2=
EXTT3=
EXTT4=
EXTT5=
EXTT6=
EXTT7=
EXTT8=
EXTT9=
PLAYORDER=
